<svg width="50" height="50" viewBox="0 0 50 50" fill="none" xmlns="http://www.w3.org/2000/svg">
<g clip-path="url(#clip0_107_547)">
<rect width="50" height="50" fill="white"/>
<g clip-path="url(#clip1_107_547)">
<path d="M45.1516 29.3224V11.4447C45.1516 8.90434 43.0983 6.85107 40.558 6.85107H24.2751C21.7348 6.85107 19.6815 8.90434 19.6815 11.4447V29.3224H45.1516V29.3224Z" fill="url(#paint0_linear_107_547)"/>
<path d="M19.6816 33.7346V39.8467C19.6816 42.387 21.7349 44.4403 24.2752 44.4403H40.5581C43.0985 44.4403 45.1517 42.387 45.1517 39.8467V33.7346H19.6816ZM32.3451 40.8303C31.1322 40.8303 30.139 39.8467 30.139 38.6243C30.139 37.4114 31.1226 36.4182 32.3451 36.4182C33.5579 36.4182 34.5511 37.4019 34.5511 38.6243C34.5511 39.8467 33.5675 40.8303 32.3451 40.8303Z" fill="url(#paint1_linear_107_547)"/>
</g>
<g filter="url(#filter0_b_107_547)">
<path d="M2.41509 19.1716C1.22157 16.5783 2.35627 13.5085 4.94952 12.315L21.2122 4.83023C23.8055 3.63671 26.8752 4.77141 28.0688 7.36466L39.4622 32.1199C40.6557 34.7132 39.521 37.783 36.9278 38.9765L20.6651 46.4613C18.0718 47.6548 15.002 46.5201 13.8085 43.9268L2.41509 19.1716Z" fill="url(#paint2_linear_107_547)"/>
</g>
<g filter="url(#filter1_b_107_547)">
<path fill-rule="evenodd" clip-rule="evenodd" d="M21.6012 5.67542L5.33851 13.1602C3.21205 14.1389 2.28159 16.6561 3.26028 18.7826L14.6537 43.5378C15.6324 45.6643 18.1496 46.5948 20.2761 45.6161L36.5388 38.1313C38.6652 37.1526 39.5957 34.6354 38.617 32.5089L27.2236 7.75365C26.2449 5.62719 23.7277 4.69673 21.6012 5.67542ZM4.94952 12.315C2.35627 13.5085 1.22157 16.5783 2.41509 19.1716L13.8085 43.9268C15.002 46.5201 18.0718 47.6548 20.6651 46.4613L36.9278 38.9765C39.521 37.783 40.6557 34.7132 39.4622 32.1199L28.0688 7.36466C26.8752 4.77141 23.8055 3.63671 21.2122 4.83023L4.94952 12.315Z" fill="url(#paint3_linear_107_547)" fill-opacity="0.5"/>
</g>
<path d="M29.7207 36.0075C30.0029 37.5728 28.9628 39.0704 27.3975 39.3526C25.8323 39.6348 24.3346 38.5947 24.0525 37.0294C23.7703 35.4642 24.8104 33.9666 26.3756 33.6844C27.9409 33.4022 29.4385 34.4423 29.7207 36.0075Z" fill="url(#paint4_linear_107_547)"/>
<path d="M28.7045 31.1939C28.7803 31.6148 28.5006 32.0175 28.0797 32.0934C27.6588 32.1692 27.2561 31.8895 27.1802 31.4686C27.1044 31.0477 27.3841 30.645 27.805 30.5691C28.2259 30.4933 28.6286 30.773 28.7045 31.1939Z" fill="url(#paint5_linear_107_547)"/>
<path fill-rule="evenodd" clip-rule="evenodd" d="M8.2215 19.2355C7.95726 18.7294 8.16327 18.1251 8.68164 17.8858L23.0874 11.2356C23.6057 10.9963 24.2402 11.2126 24.5044 11.7187C24.7687 12.2248 24.5627 12.8291 24.0443 13.0684L9.63856 19.7186C9.12019 19.9579 8.48575 19.7416 8.2215 19.2355Z" fill="url(#paint6_linear_107_547)"/>
<path fill-rule="evenodd" clip-rule="evenodd" d="M9.91486 22.9411C9.65062 22.4349 9.85663 21.8307 10.375 21.5914L24.7807 14.9411C25.2991 14.7018 25.9335 14.9181 26.1978 15.4243C26.462 15.9304 26.256 16.5346 25.7376 16.7739L11.3319 23.4242C10.8135 23.6635 10.1791 23.4472 9.91486 22.9411Z" fill="url(#paint7_linear_107_547)"/>
<path fill-rule="evenodd" clip-rule="evenodd" d="M11.5433 27.1535C11.279 26.6473 11.485 26.0431 12.0034 25.8038L22.146 21.1216C22.6644 20.8823 23.2989 21.0985 23.5631 21.6047C23.8273 22.1108 23.6213 22.715 23.103 22.9543L12.9603 27.6366C12.442 27.8759 11.8075 27.6596 11.5433 27.1535Z" fill="url(#paint8_linear_107_547)"/>
</g>
<defs>
<filter id="filter0_b_107_547" x="-60.5278" y="-58.1127" width="162.933" height="167.517" filterUnits="userSpaceOnUse" color-interpolation-filters="sRGB">
<feFlood flood-opacity="0" result="BackgroundImageFix"/>
<feGaussianBlur in="BackgroundImageFix" stdDeviation="31.2341"/>
<feComposite in2="SourceAlpha" operator="in" result="effect1_backgroundBlur_107_547"/>
<feBlend mode="normal" in="SourceGraphic" in2="effect1_backgroundBlur_107_547" result="shape"/>
</filter>
<filter id="filter1_b_107_547" x="-60.5278" y="-58.1127" width="162.933" height="167.517" filterUnits="userSpaceOnUse" color-interpolation-filters="sRGB">
<feFlood flood-opacity="0" result="BackgroundImageFix"/>
<feGaussianBlur in="BackgroundImageFix" stdDeviation="31.2341"/>
<feComposite in2="SourceAlpha" operator="in" result="effect1_backgroundBlur_107_547"/>
<feBlend mode="normal" in="SourceGraphic" in2="effect1_backgroundBlur_107_547" result="shape"/>
</filter>
<linearGradient id="paint0_linear_107_547" x1="41.0435" y1="29.3224" x2="22.028" y2="12.9508" gradientUnits="userSpaceOnUse">
<stop stop-color="#006EF8"/>
<stop offset="1" stop-color="#69ACFF"/>
</linearGradient>
<linearGradient id="paint1_linear_107_547" x1="35.8098" y1="40.7563" x2="25.5371" y2="39.0874" gradientUnits="userSpaceOnUse">
<stop stop-color="#006EF8"/>
<stop offset="1" stop-color="#69ACFF"/>
</linearGradient>
<linearGradient id="paint2_linear_107_547" x1="10.4886" y1="12.6399" x2="36.112" y2="35.592" gradientUnits="userSpaceOnUse">
<stop stop-color="white" stop-opacity="0.49"/>
<stop offset="1" stop-color="white" stop-opacity="0.04"/>
</linearGradient>
<linearGradient id="paint3_linear_107_547" x1="13.0809" y1="8.57262" x2="28.7964" y2="42.7189" gradientUnits="userSpaceOnUse">
<stop stop-color="white"/>
<stop offset="1" stop-color="white" stop-opacity="0"/>
</linearGradient>
<linearGradient id="paint4_linear_107_547" x1="26.3756" y1="33.6844" x2="27.3975" y2="39.3526" gradientUnits="userSpaceOnUse">
<stop stop-color="white" stop-opacity="0.32"/>
<stop offset="1" stop-color="white" stop-opacity="0.75"/>
</linearGradient>
<linearGradient id="paint5_linear_107_547" x1="27.805" y1="30.5691" x2="28.0797" y2="32.0934" gradientUnits="userSpaceOnUse">
<stop stop-color="white"/>
<stop offset="1" stop-color="white" stop-opacity="0.75"/>
</linearGradient>
<linearGradient id="paint6_linear_107_547" x1="6.88571" y1="20.9895" x2="26.7134" y2="10.6373" gradientUnits="userSpaceOnUse">
<stop stop-color="white" stop-opacity="0.67"/>
<stop offset="1" stop-color="white" stop-opacity="0"/>
</linearGradient>
<linearGradient id="paint7_linear_107_547" x1="8.57907" y1="24.6951" x2="28.4067" y2="14.3428" gradientUnits="userSpaceOnUse">
<stop stop-color="white" stop-opacity="0.67"/>
<stop offset="1" stop-color="white" stop-opacity="0"/>
</linearGradient>
<linearGradient id="paint8_linear_107_547" x1="10.6825" y1="28.6882" x2="25.319" y2="21.0463" gradientUnits="userSpaceOnUse">
<stop stop-color="white" stop-opacity="0.67"/>
<stop offset="1" stop-color="white" stop-opacity="0"/>
</linearGradient>
<clipPath id="clip0_107_547">
<rect width="50" height="50" fill="white"/>
</clipPath>
<clipPath id="clip1_107_547">
<rect width="25.4701" height="37.5892" fill="white" transform="translate(19.6816 6.85107)"/>
</clipPath>
</defs>
</svg>
