<svg width="50" height="50" viewBox="0 0 50 50" fill="none" xmlns="http://www.w3.org/2000/svg">
<rect width="50" height="50" fill="white"/>
<g clip-path="url(#clip0_107_422)">
<path d="M29.211 21.0955C33.9103 21.0955 37.7198 17.2863 37.7198 12.5875C37.7198 7.88873 33.9103 4.07959 29.211 4.07959C24.5117 4.07959 20.7021 7.88873 20.7021 12.5875C20.7021 17.2863 24.5117 21.0955 29.211 21.0955Z" fill="url(#paint0_linear_107_422)"/>
<path d="M29.2108 24.6379C20.4972 24.6379 13.4321 31.7023 13.4321 40.415C13.4321 42.6981 15.2854 44.5512 17.5688 44.5512H40.8529C43.1362 44.5512 44.9998 42.6981 44.9998 40.415C44.9998 31.7023 37.9347 24.6379 29.2108 24.6379Z" fill="url(#paint1_linear_107_422)"/>
</g>
<g filter="url(#filter0_b_107_422)">
<g clip-path="url(#clip1_107_422)">
<path d="M21.7029 21.2478C26.183 19.8295 28.6653 15.0482 27.2471 10.5685C25.8289 6.08885 21.0474 3.60711 16.5672 5.02542C12.0871 6.44374 9.60485 11.225 11.023 15.7047C12.4412 20.1844 17.2227 22.6661 21.7029 21.2478Z" fill="url(#paint2_linear_107_422)"/>
<path d="M23.3631 11.7981C24.102 14.1323 22.8087 16.6244 20.4733 17.3638C18.1378 18.1031 15.646 16.8093 14.907 14.4751C14.1681 12.1409 15.4614 9.6488 17.7968 8.90945C20.1323 8.17011 22.6241 9.46391 23.3631 11.7981Z" stroke="url(#paint3_linear_107_422)" stroke-opacity="0.4" stroke-width="8.14803"/>
<path d="M20.0059 15.8876C21.5253 15.4066 22.3671 13.785 21.8862 12.2658C21.4052 10.7465 19.7836 9.90489 18.2642 10.3859C16.7448 10.8669 15.903 12.4884 16.3839 14.0077C16.8649 15.5269 18.4865 16.3686 20.0059 15.8876Z" fill="url(#paint4_linear_107_422)"/>
<path d="M22.772 24.625C14.4648 27.2549 9.86125 36.1221 12.4909 44.4285C13.1799 46.6052 15.5061 47.8125 17.683 47.1234L39.8813 40.0959C42.0582 39.4068 43.2755 37.0776 42.5864 34.901C39.9568 26.5946 31.0891 21.992 22.772 24.625Z" fill="url(#paint5_linear_107_422)"/>
<path d="M16.3749 43.1989C14.4245 37.038 17.8391 30.4599 24.0016 28.509C30.1756 26.5545 36.7525 29.9713 38.7024 36.1306C38.7047 36.1378 38.7051 36.1413 38.7051 36.142C38.7052 36.1424 38.7052 36.1428 38.7052 36.1432C38.7052 36.1439 38.7052 36.1447 38.7051 36.1458C38.7047 36.15 38.7028 36.16 38.696 36.1729C38.6892 36.186 38.6812 36.195 38.6753 36.2C38.6717 36.2031 38.6664 36.2073 38.6517 36.2119L16.4534 43.2394C16.4446 43.2421 16.4397 43.2428 16.4378 43.243C16.4357 43.2432 16.4338 43.2432 16.4315 43.243C16.4265 43.2425 16.4171 43.2405 16.4058 43.2347C16.3945 43.2288 16.3875 43.2223 16.3843 43.2185C16.3829 43.2169 16.3818 43.2154 16.3808 43.2136C16.3799 43.212 16.3776 43.2076 16.3749 43.1989Z" stroke="url(#paint6_linear_107_422)" stroke-opacity="0.6" stroke-width="8.14803"/>
<path fill-rule="evenodd" clip-rule="evenodd" d="M19.2281 36.9063C19.0079 36.3603 19.2801 35.7609 19.8362 35.5675L30.1326 31.9862C30.6887 31.7928 31.318 32.0786 31.5383 32.6246C31.7585 33.1706 31.4863 33.77 30.9302 33.9634L20.6338 37.5448C20.0777 37.7382 19.4484 37.4523 19.2281 36.9063Z" fill="url(#paint7_linear_107_422)"/>
</g>
</g>
<defs>
<filter id="filter0_b_107_422" x="-55.5118" y="-56.7762" width="156.386" height="162.194" filterUnits="userSpaceOnUse" color-interpolation-filters="sRGB">
<feFlood flood-opacity="0" result="BackgroundImageFix"/>
<feGaussianBlur in="BackgroundImageFix" stdDeviation="28.5181"/>
<feComposite in2="SourceAlpha" operator="in" result="effect1_backgroundBlur_107_422"/>
<feBlend mode="normal" in="SourceGraphic" in2="effect1_backgroundBlur_107_422" result="shape"/>
</filter>
<linearGradient id="paint0_linear_107_422" x1="29.211" y1="4.07959" x2="29.211" y2="21.0955" gradientUnits="userSpaceOnUse">
<stop stop-color="#FF9900"/>
<stop offset="1" stop-color="#FFBC58"/>
</linearGradient>
<linearGradient id="paint1_linear_107_422" x1="29.216" y1="24.6379" x2="29.216" y2="44.5512" gradientUnits="userSpaceOnUse">
<stop stop-color="#FF9900"/>
<stop offset="1" stop-color="#FFBC58"/>
</linearGradient>
<linearGradient id="paint2_linear_107_422" x1="10.8101" y1="22.7789" x2="26.1489" y2="13.4051" gradientUnits="userSpaceOnUse">
<stop stop-color="white" stop-opacity="0.1"/>
<stop offset="1" stop-color="white" stop-opacity="0.23"/>
</linearGradient>
<linearGradient id="paint3_linear_107_422" x1="16.5672" y1="5.02542" x2="21.7029" y2="21.2478" gradientUnits="userSpaceOnUse">
<stop stop-color="white"/>
<stop offset="1" stop-color="white" stop-opacity="0"/>
</linearGradient>
<linearGradient id="paint4_linear_107_422" x1="18.2642" y1="10.3859" x2="20.0059" y2="15.8876" gradientUnits="userSpaceOnUse">
<stop stop-color="white" stop-opacity="0.67"/>
<stop offset="1" stop-color="white" stop-opacity="0"/>
</linearGradient>
<linearGradient id="paint5_linear_107_422" x1="32.8718" y1="41.6469" x2="16.2178" y2="27.8454" gradientUnits="userSpaceOnUse">
<stop stop-color="white" stop-opacity="0.1"/>
<stop offset="1" stop-color="white" stop-opacity="0.23"/>
</linearGradient>
<linearGradient id="paint6_linear_107_422" x1="22.7769" y1="24.6234" x2="28.787" y2="43.6081" gradientUnits="userSpaceOnUse">
<stop stop-color="white"/>
<stop offset="1" stop-color="white" stop-opacity="0"/>
</linearGradient>
<linearGradient id="paint7_linear_107_422" x1="18.2553" y1="38.3721" x2="33.3304" y2="32.291" gradientUnits="userSpaceOnUse">
<stop stop-color="white" stop-opacity="0.67"/>
<stop offset="1" stop-color="white" stop-opacity="0"/>
</linearGradient>
<clipPath id="clip0_107_422">
<rect width="31.5677" height="40.4818" fill="white" transform="translate(13.4323 4.07959)"/>
</clipPath>
<clipPath id="clip1_107_422">
<rect width="31.5677" height="40.4818" fill="white" transform="translate(1.52441 9.7876) rotate(-17.5666)"/>
</clipPath>
</defs>
</svg>
