<svg width="50" height="50" viewBox="0 0 50 50" fill="none" xmlns="http://www.w3.org/2000/svg">
<rect width="50" height="50" fill="white"/>
<path d="M17.958 6.15877C18.7257 4.61374 20.9297 4.61374 21.6974 6.15877L25.6841 14.1827C25.9881 14.7946 26.5722 15.219 27.248 15.319L36.1113 16.6311C37.8179 16.8837 38.499 18.9799 37.2668 20.1874L30.8675 26.4585C30.3795 26.9367 30.1564 27.6234 30.2701 28.2971L31.7611 37.1319C32.0483 38.8331 30.2652 40.1286 28.736 39.3299L20.7943 35.1817C20.1887 34.8654 19.4667 34.8654 18.8611 35.1817L10.9194 39.3299C9.39023 40.1286 7.60714 38.8331 7.89424 37.1319L9.38528 28.2971C9.49897 27.6234 9.27586 26.9367 8.78791 26.4585L2.38862 20.1874C1.15643 18.9799 1.83751 16.8837 3.54413 16.6311L12.4074 15.319C13.0832 15.219 13.6673 14.7946 13.9713 14.1827L17.958 6.15877Z" fill="url(#paint0_linear_107_524)"/>
<g filter="url(#filter0_b_107_524)">
<path d="M47.3189 23.7547C48.8739 24.5019 48.903 26.7057 47.3682 27.4937L39.4178 31.5754C38.81 31.8875 38.3934 32.4771 38.3023 33.1542L37.1102 42.0113C36.8801 43.7211 34.7931 44.4298 33.5695 43.2136L27.2307 36.9137C26.7461 36.4321 26.0566 36.2181 25.3845 36.3406L16.5925 37.9439C14.8952 38.2534 13.5764 36.4876 14.3549 34.948L18.3877 26.9727C18.696 26.363 18.6864 25.641 18.3622 25.0397L14.1205 17.1735C13.3016 15.655 14.5735 13.855 16.2783 14.1196L25.1095 15.4905C25.7846 15.5953 26.4683 15.3632 26.94 14.869L33.1104 8.40406C34.3016 7.15606 36.4065 7.80944 36.6817 9.51258L38.1068 18.3352C38.2158 19.0096 38.6478 19.5881 39.2636 19.884L47.3189 23.7547Z" fill="url(#paint1_linear_107_524)"/>
</g>
<g filter="url(#filter1_b_107_524)">
<path fill-rule="evenodd" clip-rule="evenodd" d="M39.0745 30.9068L47.0249 26.8251C48.0072 26.3208 47.9886 24.9103 46.9934 24.4321L38.9381 20.5614C38.1006 20.159 37.5131 19.3723 37.3649 18.455L35.9397 9.63244C35.7636 8.54242 34.4165 8.12426 33.6541 8.92299L27.4837 15.3879C26.8421 16.06 25.9124 16.3757 24.9942 16.2332L16.163 14.8623C15.0719 14.6929 14.258 15.8449 14.782 16.8168L19.0237 24.683C19.4647 25.5008 19.4776 26.4827 19.0584 27.3118L15.0256 35.2872C14.5273 36.2725 15.3714 37.4026 16.4576 37.2045L25.2496 35.6012C26.1637 35.4346 27.1015 35.7256 27.7605 36.3806L34.0993 42.6806C34.8824 43.4589 36.2181 43.0054 36.3654 41.9111L37.5574 33.054C37.6813 32.1331 38.248 31.3312 39.0745 30.9068ZM47.3682 27.4937C48.903 26.7057 48.8739 24.5019 47.3189 23.7547L39.2636 19.884C38.6478 19.5881 38.2158 19.0096 38.1068 18.3352L36.6817 9.51258C36.4065 7.80944 34.3016 7.15606 33.1104 8.40406L26.94 14.869C26.4683 15.3632 25.7846 15.5953 25.1095 15.4905L16.2783 14.1196C14.5735 13.855 13.3016 15.655 14.1205 17.1735L18.3622 25.0397C18.6864 25.6411 18.696 26.363 18.3877 26.9727L14.3549 34.948C13.5764 36.4876 14.8952 38.2534 16.5925 37.9439L25.3845 36.3406C26.0566 36.2181 26.7461 36.4321 27.2307 36.9137L33.5695 43.2136C34.7931 44.4298 36.8801 43.7211 37.1102 42.0113L38.3023 33.1542C38.3934 32.4771 38.81 31.8875 39.4178 31.5754L47.3682 27.4937Z" fill="url(#paint2_linear_107_524)"/>
</g>
<g filter="url(#filter2_b_107_524)">
<path d="M33.2891 25.5823C33.4836 25.6696 33.4872 25.9444 33.2951 26.0367L31.4024 26.9462C31.3242 26.9838 31.2711 27.059 31.2618 27.1452L31.0366 29.233C31.0138 29.4449 30.7535 29.5333 30.6063 29.3791L29.1565 27.8601C29.0966 27.7974 29.0086 27.7701 28.9238 27.7879L26.8686 28.2189C26.66 28.2627 26.4955 28.0424 26.5967 27.8548L27.5933 26.0065C27.6345 25.9302 27.6332 25.8381 27.5901 25.7629L26.5451 23.9415C26.439 23.7566 26.5976 23.5321 26.8073 23.5704L28.8732 23.9471C28.9584 23.9626 29.0457 23.933 29.1038 23.8688L30.5131 22.312C30.6562 22.154 30.9187 22.2355 30.9472 22.4468L31.2273 24.5279C31.2388 24.6138 31.294 24.6876 31.373 24.7231L33.2891 25.5823Z" fill="url(#paint3_linear_107_524)"/>
</g>
<defs>
<filter id="filter0_b_107_524" x="-80.2892" y="-86.3993" width="222.947" height="224.377" filterUnits="userSpaceOnUse" color-interpolation-filters="sRGB">
<feFlood flood-opacity="0" result="BackgroundImageFix"/>
<feGaussianBlur in="BackgroundImageFix" stdDeviation="47.0775"/>
<feComposite in2="SourceAlpha" operator="in" result="effect1_backgroundBlur_107_524"/>
<feBlend mode="normal" in="SourceGraphic" in2="effect1_backgroundBlur_107_524" result="shape"/>
</filter>
<filter id="filter1_b_107_524" x="-80.2892" y="-86.3993" width="222.947" height="224.377" filterUnits="userSpaceOnUse" color-interpolation-filters="sRGB">
<feFlood flood-opacity="0" result="BackgroundImageFix"/>
<feGaussianBlur in="BackgroundImageFix" stdDeviation="47.0775"/>
<feComposite in2="SourceAlpha" operator="in" result="effect1_backgroundBlur_107_524"/>
<feBlend mode="normal" in="SourceGraphic" in2="effect1_backgroundBlur_107_524" result="shape"/>
</filter>
<filter id="filter2_b_107_524" x="-4.2702" y="-8.55218" width="68.4888" height="68.7906" filterUnits="userSpaceOnUse" color-interpolation-filters="sRGB">
<feFlood flood-opacity="0" result="BackgroundImageFix"/>
<feGaussianBlur in="BackgroundImageFix" stdDeviation="15.3907"/>
<feComposite in2="SourceAlpha" operator="in" result="effect1_backgroundBlur_107_524"/>
<feBlend mode="normal" in="SourceGraphic" in2="effect1_backgroundBlur_107_524" result="shape"/>
</filter>
<linearGradient id="paint0_linear_107_524" x1="13.7475" y1="9.14791" x2="27.1301" y2="35.4882" gradientUnits="userSpaceOnUse">
<stop offset="0.105049" stop-color="#FF7C7C"/>
<stop offset="1" stop-color="#F73333"/>
</linearGradient>
<linearGradient id="paint1_linear_107_524" x1="20.4495" y1="32.5896" x2="33.6834" y2="18.2984" gradientUnits="userSpaceOnUse">
<stop stop-color="white" stop-opacity="0.08"/>
<stop offset="1" stop-color="#FFC1C1" stop-opacity="0.4"/>
</linearGradient>
<linearGradient id="paint2_linear_107_524" x1="51.1062" y1="25.5746" x2="8.1948" y2="26.1404" gradientUnits="userSpaceOnUse">
<stop stop-color="white" stop-opacity="0.43"/>
<stop offset="1" stop-color="white" stop-opacity="0"/>
</linearGradient>
<linearGradient id="paint3_linear_107_524" x1="28.7458" y1="24.0501" x2="30.2852" y2="29.9428" gradientUnits="userSpaceOnUse">
<stop stop-color="white" stop-opacity="0.63"/>
<stop offset="1" stop-color="white" stop-opacity="0"/>
</linearGradient>
</defs>
</svg>
