<svg width="24" height="24" viewBox="0 0 24 24" fill="none" xmlns="http://www.w3.org/2000/svg">
<path fill-rule="evenodd" clip-rule="evenodd" d="M1.46447 15.4645C2.40215 14.5268 3.67392 14 5 14H13C14.3261 14 15.5979 14.5268 16.5355 15.4645C17.4732 16.4021 18 17.6739 18 19V21C18 21.5523 17.5523 22 17 22C16.4477 22 16 21.5523 16 21V19C16 18.2044 15.6839 17.4413 15.1213 16.8787C14.5587 16.3161 13.7956 16 13 16H5C4.20435 16 3.44129 16.3161 2.87868 16.8787C2.31607 17.4413 2 18.2044 2 19V21C2 21.5523 1.55228 22 1 22C0.447715 22 0 21.5523 0 21V19C0 17.6739 0.526784 16.4021 1.46447 15.4645Z" fill="#0F172A"/>
<path fill-rule="evenodd" clip-rule="evenodd" d="M9 4C7.34315 4 6 5.34315 6 7C6 8.65685 7.34315 10 9 10C10.6569 10 12 8.65685 12 7C12 5.34315 10.6569 4 9 4ZM4 7C4 4.23858 6.23858 2 9 2C11.7614 2 14 4.23858 14 7C14 9.76142 11.7614 12 9 12C6.23858 12 4 9.76142 4 7Z" fill="#0F172A"/>
<path fill-rule="evenodd" clip-rule="evenodd" d="M19.0318 14.8799C19.1698 14.3451 19.7153 14.0236 20.25 14.1616C21.3227 14.4386 22.273 15.064 22.9517 15.9395C23.6304 16.8151 23.9992 17.8913 24 18.9991L24 20.9999C24 21.5522 23.5523 21.9999 23 21.9999C22.4477 21.9999 22 21.5522 22 20.9999L22 19.0006C22 19.0005 22 19.0007 22 19.0006C21.9994 18.336 21.7782 17.6901 21.371 17.1649C20.9638 16.6395 20.3936 16.2643 19.75 16.0981C19.2153 15.9601 18.8937 15.4146 19.0318 14.8799Z" fill="#0F172A"/>
<path fill-rule="evenodd" clip-rule="evenodd" d="M15.0312 2.88184C15.1682 2.34681 15.713 2.02414 16.248 2.16113C17.3236 2.43651 18.2768 3.06201 18.9576 3.93902C19.6383 4.81603 20.0078 5.89467 20.0078 7.00488C20.0078 8.11509 19.6383 9.19373 18.9576 10.0707C18.2768 10.9478 17.3236 11.5733 16.248 11.8486C15.713 11.9856 15.1682 11.6629 15.0312 11.1279C14.8943 10.5929 15.2169 10.0481 15.752 9.91113C16.3973 9.7459 16.9692 9.3706 17.3777 8.8444C17.7861 8.31819 18.0078 7.67101 18.0078 7.00488C18.0078 6.33875 17.7861 5.69157 17.3777 5.16536C16.9692 4.63915 16.3973 4.26386 15.752 4.09863C15.2169 3.96164 14.8943 3.41687 15.0312 2.88184Z" fill="#0F172A"/>
</svg>
