<svg width="32" height="32" viewBox="0 0 32 32" fill="none" xmlns="http://www.w3.org/2000/svg">
<path d="M29.8756 16C29.8756 23.5027 23.7935 29.5849 16.2907 29.5849C8.78798 29.5849 2.70581 23.5027 2.70581 16C2.70581 8.49726 8.78798 2.41509 16.2907 2.41509C23.7935 2.41509 29.8756 8.49726 29.8756 16Z" fill="#FFCBBA" fill-opacity="0.3"/>
<path d="M28.0643 16C28.0643 22.5024 22.793 27.7736 16.2907 27.7736C9.7883 27.7736 4.51709 22.5024 4.51709 16C4.51709 9.49762 9.7883 4.22641 16.2907 4.22641C22.793 4.22641 28.0643 9.49762 28.0643 16Z" fill="#CD3D0D"/>
<path fill-rule="evenodd" clip-rule="evenodd" d="M16.2907 26.566C22.1261 26.566 26.8567 21.8355 26.8567 16C26.8567 10.1645 22.1261 5.43396 16.2907 5.43396C10.4552 5.43396 5.72464 10.1645 5.72464 16C5.72464 21.8355 10.4552 26.566 16.2907 26.566ZM16.2907 27.7736C22.793 27.7736 28.0643 22.5024 28.0643 16C28.0643 9.49762 22.793 4.22641 16.2907 4.22641C9.7883 4.22641 4.51709 9.49762 4.51709 16C4.51709 22.5024 9.7883 27.7736 16.2907 27.7736Z" fill="#332D57"/>
<mask id="mask0_102_2" style="mask-type:alpha" maskUnits="userSpaceOnUse" x="5" y="5" width="22" height="22">
<path d="M26.8568 16C26.8568 21.8355 22.1262 26.566 16.2908 26.566C10.4553 26.566 5.72473 21.8355 5.72473 16C5.72473 10.1645 10.4553 5.43396 16.2908 5.43396C22.1262 5.43396 26.8568 10.1645 26.8568 16Z" fill="#F05927"/>
</mask>
<g mask="url(#mask0_102_2)">
<path d="M24.4418 16C24.4418 21.8355 19.7112 26.566 13.8757 26.566C8.04027 26.566 3.30969 21.8355 3.30969 16C3.30969 10.1645 8.04027 5.43396 13.8757 5.43396C19.7112 5.43396 24.4418 10.1645 24.4418 16Z" fill="#F05927"/>
</g>
<path d="M7.9888 14.9434C7.9888 15.2769 7.71848 15.5472 7.38502 15.5472C7.05157 15.5472 6.78125 15.2769 6.78125 14.9434C6.78125 14.6099 7.05157 14.3396 7.38502 14.3396C7.71848 14.3396 7.9888 14.6099 7.9888 14.9434Z" fill="white"/>
<path d="M15.8379 21.2538C15.8379 22.4208 14.8918 23.367 13.7247 23.367C12.5576 23.367 11.6115 22.4208 11.6115 21.2538C11.6115 20.0867 12.5576 19.1405 13.7247 19.1405C14.8918 19.1405 15.8379 20.0867 15.8379 21.2538Z" fill="#FFD136"/>
<path fill-rule="evenodd" clip-rule="evenodd" d="M22.4522 13.0772C22.4644 13.0674 22.477 13.058 22.4898 13.0491C22.7324 12.8812 23.0636 12.8816 23.2878 13.0822C23.5364 13.3046 23.5592 13.6884 23.3176 13.9185C22.6444 14.5596 21.8583 15.0708 20.9993 15.4263C20.6911 15.5539 20.3495 15.3774 20.247 15.06C20.1545 14.7737 20.2884 14.4708 20.5403 14.3172C20.5536 14.3091 20.5672 14.3014 20.5811 14.2941C20.5894 14.2898 20.5978 14.2856 20.6063 14.2816C20.613 14.2785 20.6197 14.2755 20.6264 14.2726C21.2837 13.9887 21.8882 13.5956 22.4141 13.1098C22.4195 13.1048 22.425 13.0999 22.4305 13.0951C22.4376 13.089 22.4449 13.083 22.4522 13.0772Z" fill="#332D57"/>
<path d="M19.6226 4.67924C19.6226 5.76297 18.7441 6.64151 17.6604 6.64151C16.5767 6.64151 15.6981 5.76297 15.6981 4.67924C15.6981 3.59552 16.5767 2.71698 17.6604 2.71698C18.7441 2.71698 19.6226 3.59552 19.6226 4.67924Z" fill="#FFD136"/>
<path fill-rule="evenodd" clip-rule="evenodd" d="M17.6604 5.43396C18.0772 5.43396 18.4151 5.09606 18.4151 4.67924C18.4151 4.26243 18.0772 3.92453 17.6604 3.92453C17.2436 3.92453 16.9057 4.26243 16.9057 4.67924C16.9057 5.09606 17.2436 5.43396 17.6604 5.43396ZM17.6604 6.64151C18.7441 6.64151 19.6226 5.76297 19.6226 4.67924C19.6226 3.59552 18.7441 2.71698 17.6604 2.71698C16.5767 2.71698 15.6981 3.59552 15.6981 4.67924C15.6981 5.76297 16.5767 6.64151 17.6604 6.64151Z" fill="#332D57"/>
<path d="M30.4906 22.4906C30.4906 23.4076 29.7472 24.1509 28.8302 24.1509C27.9132 24.1509 27.1698 23.4076 27.1698 22.4906C27.1698 21.5736 27.9132 20.8302 28.8302 20.8302C29.7472 20.8302 30.4906 21.5736 30.4906 22.4906Z" fill="#F17940"/>
<path d="M4.07541 3.16981C4.07541 2.75299 4.4133 2.4151 4.83012 2.4151C5.24694 2.4151 5.58484 2.75299 5.58484 3.16981C5.58484 3.58663 5.24694 3.92453 4.83012 3.92453C4.4133 3.92453 4.07541 3.58663 4.07541 3.16981Z" fill="#F96E52"/>
<path d="M2.11324 5.13207C2.11324 4.63189 2.51872 4.22641 3.0189 4.22641C3.51908 4.22641 3.92456 4.63189 3.92456 5.13207C3.92456 5.63226 3.51908 6.03773 3.0189 6.03773C2.51872 6.03773 2.11324 5.63226 2.11324 5.13207Z" fill="#FECD64"/>
<path d="M4.83018 5.5849C4.83018 5.33481 5.03292 5.13207 5.28301 5.13207C5.5331 5.13207 5.73584 5.33481 5.73584 5.5849C5.73584 5.835 5.5331 6.03773 5.28301 6.03773C5.03292 6.03773 4.83018 5.835 4.83018 5.5849Z" fill="#FECD64"/>
<path d="M19.6227 15.5472C19.6227 15.7973 19.42 16 19.1699 16C18.9198 16 18.717 15.7973 18.717 15.5472C18.717 15.2971 18.9198 15.0943 19.1699 15.0943C19.42 15.0943 19.6227 15.2971 19.6227 15.5472Z" fill="#332D57"/>
<path d="M11.1698 16.1509C11.1698 16.3177 11.0347 16.4528 10.8679 16.4528C10.7012 16.4528 10.566 16.3177 10.566 16.1509C10.566 15.9842 10.7012 15.8491 10.8679 15.8491C11.0347 15.8491 11.1698 15.9842 11.1698 16.1509Z" fill="#332D57"/>
<path d="M11.7736 14.4906C11.7736 14.824 11.5033 15.0943 11.1698 15.0943C10.8364 15.0943 10.566 14.824 10.566 14.4906C10.566 14.1571 10.8364 13.8868 11.1698 13.8868C11.5033 13.8868 11.7736 14.1571 11.7736 14.4906Z" fill="#332D57"/>
</svg>
